<?xml version="1.0" encoding="UTF-8" standalone="no"?>
<!-- Created with Inkscape (http://www.inkscape.org/) -->

<svg
   version="1.1"
   id="svg1"
   width="819.22302"
   height="846.76013"
   viewBox="0 0 819.22301 846.76012"
   sodipodi:docname="Chiguru 2024.svg"
   inkscape:version="1.3 (0e150ed6c4, 2023-07-21)"
   xmlns:inkscape="http://www.inkscape.org/namespaces/inkscape"
   xmlns:sodipodi="http://sodipodi.sourceforge.net/DTD/sodipodi-0.dtd"
   xmlns="http://www.w3.org/2000/svg"
   xmlns:svg="http://www.w3.org/2000/svg">
  <defs
     id="defs1" />
  <sodipodi:namedview
     id="namedview1"
     pagecolor="#ffffff"
     bordercolor="#000000"
     borderopacity="0.25"
     inkscape:showpageshadow="2"
     inkscape:pageopacity="0.0"
     inkscape:pagecheckerboard="0"
     inkscape:deskcolor="#d1d1d1"
     inkscape:zoom="0.63222417"
     inkscape:cx="1244.0208"
     inkscape:cy="606.58864"
     inkscape:window-width="1920"
     inkscape:window-height="1009"
     inkscape:window-x="-8"
     inkscape:window-y="-8"
     inkscape:window-maximized="1"
     inkscape:current-layer="g1" />
  <g
     inkscape:groupmode="layer"
     inkscape:label="Image"
     id="g1"
     transform="translate(-1859.1784,-1070.807)">
    <path
       d="m 1917.9616,1724.7243 q 7.6378,-7.6379 17.1273,-11.3411 9.721,-3.9347 19.6734,-3.9347 9.9524,0 19.4419,3.9347 9.7209,3.7032 17.3588,11.3411 l 7.175,7.1749 -14.35,14.5814 -7.4064,-7.1749 q -4.6291,-4.6291 -10.4153,-6.9436 -5.7863,-2.3145 -11.804,-2.3145 -6.0178,0 -11.804,2.3145 -5.7863,2.3145 -10.4153,6.9436 -4.629,4.3975 -6.9436,10.1838 -2.3145,5.7863 -2.3145,11.804 0,6.0177 2.3145,11.804 2.3146,5.7863 6.9436,10.4153 9.258,9.2581 22.2193,9.2581 6.2491,0 12.0354,-2.3146 5.7863,-2.3145 10.1839,-6.9435 l 7.4064,-7.175 14.35,14.5814 -7.175,7.175 q -7.6379,7.6379 -17.3588,11.5726 -9.4895,3.7032 -19.4419,3.7032 -9.9524,0 -19.6734,-3.7032 -9.4895,-3.9347 -17.1273,-11.5726 -7.6379,-7.6379 -11.3411,-17.1274 -3.7033,-9.4894 -3.7033,-19.4418 0,-10.1839 3.7033,-19.6734 3.7032,-9.4895 11.3411,-17.1273 z m 140.9538,-15.2758 q 10.8782,0 20.1362,4.1661 9.4895,3.9347 16.6645,11.1097 7.175,6.9435 11.1097,16.433 4.1661,9.258 4.1661,20.1362 v 52.0765 h -20.5992 v -52.0765 q 0,-6.4806 -2.5459,-12.0354 -2.3145,-5.7863 -6.7121,-9.9524 -4.1661,-4.3976 -9.9524,-6.7121 -5.7863,-2.546 -12.2669,-2.546 -6.4806,0 -12.2669,2.546 -5.5548,2.3145 -9.9524,6.7121 -4.1661,4.1661 -6.7121,9.9524 -2.3145,5.5548 -2.3145,12.0354 v 52.0765 h -20.5991 v -145.5827 h 20.5991 v 52.3079 q 6.4806,-5.0919 14.35,-7.8693 8.1008,-2.7774 16.8959,-2.7774 z m 58.3256,0 h 20.3677 V 1813.37 h -20.3677 z m 78.9248,0 q 10.8782,0 20.1362,4.1661 9.4895,3.9347 16.4331,11.1097 7.175,6.9435 11.1096,16.433 4.1661,9.258 4.1661,20.1362 v 41.6612 q 0,10.8782 -4.1661,20.1362 -3.9346,9.4895 -11.1096,16.6645 -6.9436,7.175 -16.4331,11.1097 -9.258,4.1661 -20.1362,4.1661 h -10.4153 v -20.5992 h 10.4153 q 10.4153,0 18.2846,-6.0177 8.1008,-5.7863 11.3411,-15.0443 h -29.6257 q -10.6467,0 -20.1362,-3.9347 -9.4895,-4.1661 -16.6645,-11.3411 -7.175,-7.175 -11.3411,-16.6644 -3.9347,-9.4895 -3.9347,-20.1363 0,-10.8782 3.9347,-20.1362 4.1661,-9.4895 11.3411,-16.433 7.175,-7.175 16.6645,-11.1097 9.4895,-4.1661 20.1362,-4.1661 z m -31.4773,51.845 q 0,6.4806 2.3145,12.2669 2.5459,5.7863 6.7121,10.1839 4.3975,4.1661 10.1838,6.712 5.7863,2.3146 12.2669,2.3146 h 31.4773 v -31.4774 q 0,-6.4806 -2.5459,-12.0354 -2.3145,-5.7863 -6.7121,-9.9524 -4.1661,-4.3976 -9.9524,-6.7121 -5.7863,-2.546 -12.2669,-2.546 -6.4806,0 -12.2669,2.546 -5.7863,2.3145 -10.1838,6.7121 -4.1662,4.1661 -6.7121,9.9524 -2.3145,5.5548 -2.3145,12.0354 z m 193.9559,-51.845 v 51.845 q 0,10.6468 -4.1661,20.1363 -3.9347,9.4894 -11.1097,16.6644 -7.175,7.175 -16.6645,11.3411 -9.258,3.9347 -20.1362,3.9347 -10.6467,0 -20.1362,-3.9347 -9.4895,-4.1661 -16.6645,-11.3411 -6.9435,-7.175 -11.1097,-16.6644 -3.9346,-9.4895 -3.9346,-20.1363 v -51.845 h 20.5991 v 51.845 q 0,6.4806 2.3145,12.2669 2.546,5.7863 6.7121,10.1839 4.3976,4.1661 9.9524,6.712 5.7863,2.3146 12.2669,2.3146 6.4806,0 12.2669,-2.3146 5.7863,-2.5459 9.9524,-6.712 4.3976,-4.3976 6.7121,-10.1839 2.5459,-5.7863 2.5459,-12.2669 v -51.845 z m 68.5094,0 v 20.5991 h -10.4153 q -6.4806,0 -12.2669,2.546 -5.5548,2.3145 -9.9524,6.7121 -4.1661,4.1661 -6.7121,9.9524 -2.3145,5.5548 -2.3145,12.0354 v 52.0765 h -20.8306 v -52.0765 q 0,-10.8782 3.9347,-20.1362 4.1661,-9.4895 11.3411,-16.433 7.175,-7.175 16.6645,-11.1097 9.4895,-4.1661 20.1362,-4.1661 z m 110.1706,0 v 51.845 q 0,10.6468 -4.1661,20.1363 -3.9347,9.4894 -11.1097,16.6644 -7.1749,7.175 -16.6644,11.3411 -9.2581,3.9347 -20.1363,3.9347 -10.6467,0 -20.1362,-3.9347 -9.4895,-4.1661 -16.6645,-11.3411 -6.9435,-7.175 -11.1096,-16.6644 -3.9347,-9.4895 -3.9347,-20.1363 v -51.845 h 20.5991 v 51.845 q 0,6.4806 2.3145,12.2669 2.546,5.7863 6.7121,10.1839 4.3976,4.1661 9.9524,6.712 5.7863,2.3146 12.2669,2.3146 6.4807,0 12.2669,-2.3146 5.7863,-2.5459 9.9524,-6.712 4.3976,-4.3976 6.7121,-10.1839 2.546,-5.7863 2.546,-12.2669 v -51.845 z"
       id="text19"
       style="font-size:231.451px;line-height:0.95;font-family:REZ;-inkscape-font-specification:'REZ, Normal';letter-spacing:0px;word-spacing:0px;stroke:#000000;stroke-width:87.4776;stroke-opacity:0"
       aria-label="chiguru" />
    <g
       id="g22"
       transform="translate(1816.6902)">
      <path
         d="m 312.84239,1653.0386 c -0.9994,-0.3572 -1.28,-1.183 -1.2774,-3.7591 10e-4,-1.4184 0.1523,-3.8748 0.3352,-5.4588 0.1829,-1.584 0.5325,-4.896 0.777,-7.36 0.2444,-2.464 0.6946,-7 1.0005,-10.08 0.481,-4.8444 0.5047,-6.2694 0.1752,-10.56 -0.2094,-2.728 -0.5815,-6.184 -0.827,-7.68 -0.2454,-1.496 -0.5436,-3.944 -0.6627,-5.44 -0.1191,-1.496 -0.6249,-4.808 -1.1241,-7.36 -0.4991,-2.552 -1.0611,-6.1985 -1.2489,-8.1033 -0.1877,-1.9047 -0.6974,-4.9287 -1.1327,-6.72 -0.4353,-1.7912 -0.9338,-4.4219 -1.1079,-5.846 -0.1741,-1.424 -0.618,-3.3542 -0.9866,-4.2892 -0.3685,-0.935 -0.8779,-3.1806 -1.1319,-4.9903 -0.2541,-1.8097 -0.7349,-3.9835 -1.0685,-4.8308 -0.3336,-0.8472 -0.8502,-2.7644 -1.1481,-4.2604 -0.2978,-1.496 -0.8751,-3.8 -1.2828,-5.12 -0.4077,-1.32 -0.9891,-3.624 -1.2921,-5.12 -0.303,-1.496 -0.8375,-3.44 -1.1878,-4.32 -0.3503,-0.88 -0.8376,-2.7338 -1.0829,-4.1194 -0.2453,-1.3857 -0.8031,-3.3297 -1.2396,-4.32 -0.4365,-0.9904 -0.944,-2.497 -1.1278,-3.3481 -0.1838,-0.8511 -0.6142,-2.0964 -0.9564,-2.7673 -0.3423,-0.6709 -0.8994,-2.2197 -1.2381,-3.4418 -0.3386,-1.2221 -0.8719,-2.7129 -1.185,-3.3127 -0.5306,-1.0167 -0.9086,-1.9998 -3.2806,-8.5319 -0.4955,-1.3647 -1.1323,-2.8407 -1.4149,-3.28 -0.2827,-0.4394 -0.7575,-1.6628 -1.0551,-2.7188 -0.2976,-1.056 -0.8296,-2.3961 -1.1822,-2.978 -0.3526,-0.5818 -0.9694,-1.9498 -1.3706,-3.04 -1.2739,-3.4613 -2.387,-6.0879 -3.3659,-7.9426 -0.5227,-0.9904 -0.9503,-2.0024 -0.9503,-2.2491 0,-0.2466 -0.4813,-1.4527 -1.0695,-2.6801 -0.5883,-1.2274 -1.166,-2.7457 -1.2838,-3.374 -0.1179,-0.6282 -0.5772,-1.634 -1.0207,-2.2352 -0.4434,-0.6011 -1.0165,-1.8008 -1.2735,-2.666 -0.2569,-0.8652 -0.7371,-2.0307 -1.0672,-2.5901 -0.33,-0.5594 -0.7794,-1.5813 -0.9987,-2.271 -0.2192,-0.6897 -1.043,-2.6219 -1.8307,-4.2939 -2.6253,-5.5726 -2.9222,-6.2351 -3.1558,-7.04 -0.1276,-0.44 -0.7154,-1.712 -1.3061,-2.8266 -0.5907,-1.1146 -1.074,-2.2408 -1.074,-2.5027 0,-0.2618 -0.432,-1.2939 -0.96,-2.2934 -0.9618,-1.8209 -2.3981,-4.9981 -3.2084,-7.0973 -0.2378,-0.616 -0.78,-1.6808 -1.205,-2.3661 -0.425,-0.6853 -1.0431,-2.0319 -1.3736,-2.9923 -0.3304,-0.9605 -0.8738,-2.1998 -1.2075,-2.754 -0.3337,-0.5542 -0.8483,-1.7526 -1.1436,-2.663 -0.2954,-0.9105 -0.7396,-1.8236 -0.9874,-2.0292 -0.2477,-0.2056 -0.7548,-1.1886 -1.1269,-2.1846 -0.3721,-0.996 -0.9487,-2.252 -1.2813,-2.7911 -0.7073,-1.1467 -2.2383,-4.707 -3.5347,-8.2198 -0.5034,-1.364 -1.1233,-2.8824 -1.3776,-3.3742 -0.2543,-0.4918 -0.703,-1.8237 -0.9972,-2.9599 -0.2941,-1.1362 -0.8102,-2.671 -1.1469,-3.4107 -0.3366,-0.7396 -0.8322,-2.2941 -1.1013,-3.4543 -0.2691,-1.1602 -0.7663,-2.8125 -1.105,-3.6717 -0.3387,-0.8592 -0.8382,-2.8328 -1.1101,-4.3857 -0.2719,-1.5529 -0.7811,-3.7595 -1.1315,-4.9034 -0.3505,-1.144 -0.9239,-4.1136 -1.2742,-6.5991 -0.3504,-2.4855 -0.7851,-5.2215 -0.966,-6.08 -1.5238,-7.2298 -2.2226,-24.2471 -1.659,-40.4001 0.3239,-9.2849 0.8489,-15.8891 1.4827,-18.6538 0.094,-0.4109 0.54,-3.6738 0.9907,-7.251 0.4507,-3.5772 1.094,-7.3932 1.4295,-8.48 0.3356,-1.0868 0.8312,-3.4491 1.1015,-5.2496 0.2703,-1.8004 0.724,-3.8884 1.0082,-4.64 0.2841,-0.7515 0.7936,-2.6423 1.1321,-4.2017 0.3385,-1.5594 0.8815,-3.3594 1.2066,-4 0.3251,-0.6406 0.8206,-2.2799 1.101,-3.6428 0.2805,-1.363 0.8027,-3.0519 1.1605,-3.7532 0.3577,-0.7013 0.8733,-2.236 1.1457,-3.4104 0.2723,-1.1744 0.7811,-2.6958 1.1305,-3.3808 0.3495,-0.6849 0.9017,-2.311 1.2272,-3.6134 0.3254,-1.3025 0.8937,-2.7921 1.2627,-3.3103 0.369,-0.5183 0.8906,-1.8896 1.1591,-3.0474 0.2686,-1.1579 0.7596,-2.578 1.0913,-3.1558 0.3317,-0.5779 0.8464,-1.9146 1.1438,-2.9706 0.2974,-1.056 0.8337,-2.3977 1.1918,-2.9815 0.358,-0.5838 1.0475,-2.1678 1.532,-3.52 1.9708,-5.4997 2.8581,-7.8071 3.1392,-8.1634 0.1628,-0.2063 0.6022,-1.2062 0.9766,-2.2219 0.3743,-1.0158 1.0209,-2.5278 1.4368,-3.36 0.4159,-0.8323 0.8575,-1.9452 0.9814,-2.4732 0.1239,-0.528 0.556,-1.4659 0.9602,-2.0842 0.4041,-0.6184 0.8424,-1.4824 0.9739,-1.92 0.1314,-0.4377 0.7095,-1.6598 1.2845,-2.7158 0.575,-1.056 1.228,-2.496 1.451,-3.2 0.2231,-0.704 0.6636,-1.6483 0.979,-2.0984 0.3154,-0.45 0.8637,-1.5822 1.2185,-2.5159 0.3547,-0.9336 0.8567,-1.9334 1.1154,-2.2217 0.2588,-0.2882 0.7539,-1.244 1.1003,-2.124 0.3464,-0.88 1.2888,-2.824 2.0941,-4.32 0.8054,-1.496 1.9635,-3.7491 2.5736,-5.0068 0.6101,-1.2577 1.2525,-2.3752 1.4274,-2.4833 0.1749,-0.1081 0.569,-0.8791 0.8758,-1.7133 0.3068,-0.8341 0.8737,-1.9486 1.2598,-2.4766 0.3861,-0.528 1.0919,-1.68 1.5684,-2.56 1.521,-2.8088 2.5774,-4.5646 3.1109,-5.1706 0.2854,-0.3242 0.8437,-1.2374 1.2407,-2.0294 0.8795,-1.7549 4.9659,-7.8855 6.7188,-10.08 0.7029,-0.88 1.9255,-2.536 2.717,-3.68 2.0639,-2.9835 7.8152,-8.8621 8.9483,-9.1465 0.6009,-0.1508 1.2121,-0.071 1.7465,0.2289 0.7216,0.4045 0.8544,0.7531 1.0857,2.8492 0.1449,1.3136 0.1892,5.0548 0.098,8.3138 -0.1449,5.1978 -0.2664,6.2459 -0.9898,8.5359 -0.4536,1.4357 -1.0382,4.4356 -1.2991,6.6663 -0.261,2.2308 -0.5432,4.1671 -0.6272,4.303 -0.3254,0.5265 -1.097,9.0693 -1.287,14.2494 -0.3126,8.5184 -0.2042,42.9745 0.1524,48.48 0.393,6.0674 0.8618,11.2634 1.2849,14.24 0.1751,1.232 0.4659,4.4087 0.6464,7.0593 0.1974,2.9007 0.581,5.7034 0.9636,7.04 0.3495,1.2214 0.7946,4.1647 0.9891,6.5407 0.1946,2.376 0.6944,5.76 1.1107,7.52 0.8819,3.7281 1.2987,6.1666 1.5861,9.28 0.1137,1.232 0.4245,3.104 0.6907,4.16 0.2661,1.056 0.8952,4.296 1.398,7.2 0.5027,2.904 1.2797,6.6279 1.7267,8.2753 0.447,1.6475 0.8126,3.5684 0.8126,4.2688 0,0.7003 0.4295,2.5204 0.9545,4.0446 0.5249,1.5242 1.0976,3.7956 1.2726,5.0476 0.175,1.252 0.6118,2.9612 0.9706,3.7983 0.3589,0.837 0.8575,2.6927 1.1081,4.1236 0.2506,1.431 0.6998,3.1778 0.9981,3.8818 0.2984,0.704 0.8756,2.648 1.2826,4.32 0.4071,1.672 1.0908,3.976 1.5194,5.12 0.4285,1.144 0.8846,2.728 1.0135,3.52 0.1289,0.792 0.6315,2.304 1.117,3.36 0.4855,1.056 0.983,2.64 1.1057,3.52 0.1226,0.88 0.6365,2.536 1.1419,3.68 0.5054,1.144 1.0707,2.8407 1.2564,3.7705 0.1856,0.9298 0.6177,2.24 0.9603,2.9115 0.3426,0.6716 0.8518,2.2148 1.1317,3.4295 0.2798,1.2146 0.7867,2.9557 1.1264,3.8689 0.3397,0.9133 0.9169,2.8573 1.2827,4.32 0.3658,1.4628 1.0149,3.5506 1.4425,4.6396 0.4276,1.0891 0.9253,2.9062 1.1062,4.0381 0.1808,1.1319 0.6309,2.741 1.0002,3.5759 0.3693,0.8348 0.8767,2.7932 1.1276,4.3519 0.2509,1.5587 0.7349,3.4841 1.0755,4.2787 0.3406,0.7946 0.7872,2.3472 0.9923,3.4501 0.2052,1.1029 0.658,3.1573 1.0062,4.5653 0.3483,1.408 1.0457,4.72 1.5499,7.36 0.5042,2.64 1.2051,5.808 1.5577,7.04 0.3525,1.232 0.7323,3.392 0.844,4.8 0.1117,1.408 0.5597,4.144 0.9954,6.08 0.4358,1.936 0.9812,5.752 1.212,8.48 0.2308,2.728 0.6443,5.752 0.919,6.72 0.6203,2.1861 1.0682,8.1496 1.5741,20.96 0.4859,12.301 0.4836,16.8204 -0.015,29.76 -0.4747,12.3258 -0.9007,17.7558 -1.544,19.68 -0.2648,0.792 -0.6796,3.744 -0.9218,6.56 -0.258,3.0002 -0.7155,6.0474 -1.105,7.36 -0.3655,1.232 -0.8008,3.752 -0.9674,5.6 -0.1776,1.9703 -0.6215,4.2896 -1.0733,5.6078 -0.4238,1.2363 -1.0128,3.669 -1.3089,5.4059 -0.296,1.7369 -0.8745,4.3254 -1.2855,5.7522 -0.4109,1.4267 -0.9259,3.6741 -1.1444,4.9941 -0.2185,1.32 -0.7293,3.0588 -1.1352,3.8641 -0.4058,0.8052 -0.9602,2.6361 -1.232,4.0685 -0.2717,1.4325 -0.8424,3.4376 -1.2681,4.4559 -0.4258,1.0183 -0.9506,2.7155 -1.1663,3.7715 -0.2157,1.056 -0.7247,2.5782 -1.1312,3.3828 -0.4065,0.8046 -0.9721,2.3886 -1.257,3.52 -0.2849,1.1314 -0.8545,2.9212 -1.2658,3.9772 -0.4113,1.056 -0.8547,2.568 -0.9853,3.36 -0.1306,0.792 -0.6316,2.52 -1.1134,3.84 -0.4817,1.32 -0.9796,2.968 -1.1065,3.6623 -0.1268,0.6943 -0.5796,1.9512 -1.0063,2.7931 -0.4266,0.8419 -0.9367,2.2899 -1.1336,3.2177 -0.1968,0.9278 -0.6854,2.3373 -1.0856,3.1322 -0.4003,0.795 -0.8993,2.091 -1.1089,2.88 -0.2096,0.7891 -0.7821,2.1547 -1.2721,3.0347 -0.4901,0.88 -0.9899,2.032 -1.1108,2.56 -0.1209,0.528 -0.554,1.4711 -0.9625,2.0959 -0.4085,0.6248 -1.1041,1.8488 -1.5458,2.72 -1.1749,2.3174 -2.6725,4.476 -5.1379,7.4058 -2.2911,2.7225 -3.0793,3.2191 -4.3747,2.7562 z"
         style="fill:#1a8ebe;fill-opacity:1"
         id="path19" />
      <path
         d="m 377.40991,1487.5399 c -0.61,-0.735 -0.5395,-3.8371 0.1247,-5.4842 0.7149,-1.773 1.0748,-3.4239 1.5068,-6.9116 0.1934,-1.5612 0.6241,-3.6492 0.9571,-4.64 1.7773,-5.2877 2.671,-13.9943 2.4735,-24.0981 -0.2049,-10.4855 -1.0522,-18.5345 -2.6215,-24.9033 -0.412,-1.672 -0.8503,-3.976 -0.9741,-5.12 -0.1238,-1.144 -0.5661,-2.9911 -0.9829,-4.1046 -0.4169,-1.1135 -0.925,-2.9855 -1.1293,-4.16 -0.2042,-1.1745 -0.6576,-2.7834 -1.0074,-3.5754 -0.3499,-0.792 -0.8977,-2.448 -1.2175,-3.68 -0.687,-2.6465 -3.2841,-10.3348 -3.9177,-11.5976 -0.2435,-0.4853 -0.613,-1.5792 -0.8212,-2.4307 -0.2082,-0.8516 -0.7281,-2.2196 -1.1554,-3.04 -0.4274,-0.8205 -0.9425,-2.2686 -1.1448,-3.2181 -0.2022,-0.9495 -0.7681,-2.3576 -1.2574,-3.1292 -0.4893,-0.7716 -0.9887,-1.9307 -1.1097,-2.5759 -0.1211,-0.6452 -0.5484,-1.8291 -0.9496,-2.6308 -0.4013,-0.8017 -0.9856,-2.2497 -1.2984,-3.2177 -0.3128,-0.968 -0.9629,-2.552 -1.4445,-3.52 -0.4817,-0.968 -0.9841,-2.2601 -1.1166,-2.8713 -0.1324,-0.6112 -0.6543,-1.925 -1.1597,-2.9195 -0.5054,-0.9946 -0.9206,-2.0065 -0.9228,-2.2488 0,-0.2422 -0.3785,-1.0884 -0.8365,-1.8804 -0.458,-0.792 -1.1063,-2.2243 -1.4406,-3.1829 -0.3343,-0.9586 -0.8039,-2.0421 -1.0435,-2.4079 -0.2397,-0.3657 -1.1957,-2.1015 -2.1244,-3.8571 -0.9288,-1.7557 -1.9908,-3.6162 -2.3599,-4.1345 -0.8094,-1.1365 -2.3596,-3.8209 -3.6794,-6.3715 -0.5334,-1.0306 -1.1402,-2.0794 -1.3486,-2.3305 -0.5167,-0.6225 -2.4352,-4.934 -3.3265,-7.4756 -0.4011,-1.144 -1.0291,-2.7411 -1.3955,-3.5491 -0.3664,-0.808 -0.8314,-2.248 -1.0335,-3.2 -0.202,-0.952 -0.6982,-2.388 -1.1026,-3.1911 -0.4044,-0.803 -0.9009,-2.3736 -1.1033,-3.49 -0.2025,-1.1164 -0.7077,-2.9074 -1.1228,-3.9798 -0.4151,-1.0725 -0.9585,-3.03 -1.2076,-4.35 -0.2491,-1.32 -0.82,-3.696 -1.2686,-5.28 -0.4487,-1.584 -1.2776,-5.3242 -1.842,-8.3116 -0.9106,-4.82 -1.0275,-6.081 -1.038,-11.2 -0.01,-4.3004 0.1631,-6.9492 0.6759,-10.4084 0.3783,-2.552 0.914,-6.224 1.1905,-8.16 0.2765,-1.936 0.8434,-4.672 1.2599,-6.08 0.4164,-1.408 0.967,-3.784 1.2235,-5.28 0.2564,-1.496 0.826,-3.8 1.2657,-5.12 0.976,-2.9303 2.0366,-6.5522 2.6706,-9.12 0.2608,-1.056 0.8972,-3 1.4144,-4.32 0.5171,-1.32 1.2307,-3.4541 1.5858,-4.7425 0.3551,-1.2883 0.8493,-2.6563 1.0983,-3.04 0.2489,-0.3836 0.7425,-1.749 1.0969,-3.0342 0.3543,-1.2853 0.9238,-2.7973 1.2654,-3.36 0.3417,-0.5628 0.7235,-1.5273 0.8484,-2.1433 0.1249,-0.616 0.6444,-1.9523 1.1545,-2.9696 0.5101,-1.0172 0.9274,-2.0508 0.9274,-2.2967 0,-0.246 0.4838,-1.3754 1.0751,-2.5098 0.5913,-1.1345 1.1761,-2.4769 1.2996,-2.9833 0.1234,-0.5063 0.7357,-2.0006 1.3606,-3.3206 0.6249,-1.32 1.7088,-3.624 2.4086,-5.12 2.8523,-6.0972 8.3893,-16.8325 9.0917,-17.6274 0.2466,-0.279 0.8833,-1.359 1.415,-2.4 0.5316,-1.0409 1.2867,-2.3495 1.678,-2.9079 0.3913,-0.5585 1.1434,-1.7583 1.6714,-2.6662 1.1243,-1.9335 3.9162,-6.176 6.3575,-9.6608 2.0679,-2.9519 7.4157,-9.0137 11.1667,-12.6577 2.9066,-2.8236 3.799,-3.1899 4.8749,-2.001 0.5405,0.5972 0.5533,0.9472 0.1967,5.36 -0.2099,2.5965 -0.5166,7.241 -0.6816,10.321 -0.171,3.1897 -0.5159,6.3575 -0.8015,7.36 -0.2758,0.968 -0.7774,4.64 -1.1146,8.16 -0.3372,3.52 -0.825,7.408 -1.0839,8.64 -0.997,4.7434 -1.3046,9.2885 -1.2885,19.04 0.016,9.9083 0.4174,14.9746 1.539,19.4403 0.2541,1.0118 0.5555,2.9197 0.6697,4.2397 0.1142,1.32 0.55,3.624 0.9685,5.12 0.4184,1.496 0.9197,4.016 1.1139,5.6 0.1942,1.584 0.7659,4.176 1.2704,5.76 0.5045,1.584 1.0804,3.816 1.2797,4.96 0.1993,1.144 0.8461,3.808 1.4373,5.92 0.5911,2.112 1.1768,4.488 1.3013,5.28 0.1246,0.792 0.5552,2.232 0.9569,3.2 0.4017,0.968 0.8952,2.832 1.0966,4.1423 0.2013,1.3102 0.6535,3.0318 1.0047,3.8259 0.3513,0.794 0.8677,2.458 1.1477,3.6977 0.2799,1.2398 0.7848,2.9583 1.1218,3.8189 0.337,0.8606 0.7636,2.3006 0.948,3.2 0.334,1.6286 2.025,7.3561 3.7897,12.8352 0.5102,1.584 1.0804,3.6408 1.2672,4.5706 0.1868,0.9298 0.6369,2.2732 1.0002,2.9853 0.3633,0.712 0.861,2.4353 1.1062,3.8295 0.2451,1.3941 0.7338,3.1862 1.086,3.9824 0.3522,0.7962 0.8072,2.3441 1.0111,3.4399 0.2039,1.0958 0.7722,3.3603 1.2627,5.0323 1.3246,4.5144 2.8664,10.919 3.5437,14.72 0.3293,1.848 0.9536,4.738 1.3872,6.4223 0.4337,1.6843 0.9395,4.8012 1.124,6.9266 0.1846,2.1254 0.5638,4.9233 0.8428,6.2177 1.2334,5.7227 1.2793,19.3848 0.09,26.8334 -0.3512,2.2 -0.7607,5.728 -0.9098,7.84 -0.1634,2.3133 -0.5369,4.667 -0.9395,5.92 -0.3676,1.144 -0.8906,3.592 -1.1623,5.44 -0.2716,1.848 -0.8511,4.656 -1.2877,6.24 -0.7614,2.7624 -1.1103,4.0938 -2.1802,8.32 -1.3825,5.461 -3.0531,11.1506 -4.5571,15.52 -0.2726,0.792 -0.6848,2.016 -0.9159,2.72 -0.2312,0.704 -0.7112,2.144 -1.0668,3.2 -0.3555,1.056 -1.0304,3.072 -1.4997,4.48 -0.4693,1.408 -1.0769,3.064 -1.3501,3.68 -0.2732,0.616 -0.9616,2.416 -1.5298,4 -1.2482,3.4797 -2.5416,6.6455 -3.3339,8.16 -0.3223,0.616 -0.6869,1.48 -0.8104,1.92 -0.4031,1.437 -5.365,11.6002 -6.093,12.48 -0.2184,0.264 -0.7106,1.2 -1.0937,2.08 -0.3831,0.88 -1.0324,1.96 -1.4429,2.4 -0.4105,0.44 -0.9996,1.304 -1.3091,1.92 -1.526,3.0369 -6.3302,9.2048 -8.2567,10.6003 -1.4591,1.057 -1.8849,1.1249 -2.4891,0.3969 z"
         style="fill:#eace18;fill-opacity:1"
         id="path20" />
      <path
         d="m 446.45471,1445.8862 c -0.7027,-0.7765 -1.0961,-3.9099 -1.3339,-10.6235 -0.109,-3.08 -0.266,-6.968 -0.3488,-8.64 -1.438,-29.0383 -1.5414,-33.2707 -1.1346,-46.4 0.5748,-18.5528 1.5906,-34.3698 2.609,-40.6243 0.3309,-2.0326 0.7516,-5.7117 0.9347,-8.1757 0.1832,-2.464 0.6216,-5.5497 0.9743,-6.8572 0.3527,-1.3074 0.8548,-4.4034 1.1158,-6.88 0.261,-2.4765 0.7558,-5.3004 1.0994,-6.2754 0.3437,-0.9749 0.7865,-3.0629 0.9841,-4.64 0.1975,-1.577 0.7739,-4.3794 1.2809,-6.2274 0.5071,-1.848 1.168,-4.728 1.4687,-6.4 0.3007,-1.672 0.8257,-3.688 1.1666,-4.48 0.3409,-0.792 0.8325,-2.6499 1.0924,-4.1288 0.26,-1.4788 0.8053,-3.3508 1.2118,-4.16 0.4065,-0.8091 0.9088,-2.4593 1.1162,-3.6669 0.2075,-1.2076 0.7274,-2.8655 1.1555,-3.6842 0.4281,-0.8187 0.9206,-2.2385 1.0944,-3.1552 0.1738,-0.9167 0.666,-2.3572 1.0937,-3.2011 0.4276,-0.844 0.9507,-2.1777 1.1624,-2.9638 0.2117,-0.7861 0.7157,-2.0821 1.12,-2.88 0.4043,-0.7979 0.9045,-2.0963 1.1114,-2.8854 0.207,-0.789 0.7028,-1.9386 1.1019,-2.5546 0.399,-0.616 0.9731,-1.8678 1.2758,-2.7819 0.3027,-0.914 0.8037,-1.994 1.1135,-2.4 0.3097,-0.4059 0.8946,-1.5685 1.2997,-2.5835 0.405,-1.015 0.8649,-1.9248 1.0218,-2.0218 0.1569,-0.097 0.7673,-1.1386 1.3563,-2.3146 2.6593,-5.3088 3.1043,-6.0831 5.6432,-9.8182 0.3589,-0.528 1.4113,-2.112 2.3386,-3.52 2.6043,-3.9543 3.7799,-5.5783 5.2729,-7.2842 0.7564,-0.8642 1.8928,-2.3508 2.5254,-3.3035 0.6325,-0.9528 1.2447,-1.7323 1.3604,-1.7323 0.1156,0 1.2112,-1.2592 2.4347,-2.7982 1.2234,-1.539 4.1684,-4.7992 6.5444,-7.2448 6.0566,-6.2342 20.2282,-18.5523 23.0471,-20.0329 0.4361,-0.2291 1.3161,-0.8637 1.9556,-1.4103 0.6395,-0.5466 2.6352,-2.0018 4.4349,-3.2338 1.7997,-1.232 3.9714,-2.744 4.826,-3.36 2.6584,-1.9161 4.5331,-3.187 6.8564,-4.6482 1.232,-0.7748 2.9117,-1.882 3.7326,-2.4603 2.8872,-2.0339 4.6262,-3.2072 8.7474,-5.9018 2.288,-1.496 4.448,-2.9728 4.8,-3.2817 0.352,-0.3089 1.288,-0.9523 2.08,-1.4298 0.792,-0.4774 1.944,-1.2169 2.56,-1.6433 0.616,-0.4264 1.552,-1.0721 2.08,-1.4349 2.0281,-1.3935 6.0168,-4.2037 8.16,-5.7491 0.968,-0.698 2.3344,-1.67 3.0365,-2.16 2.0787,-1.4508 6.361,-4.6016 11.9628,-8.8019 1.4736,-1.1049 3.2111,-2.369 3.8611,-2.809 0.6499,-0.44 2.1802,-1.6289 3.4007,-2.6421 1.2204,-1.0131 3.8161,-3.1011 5.7683,-4.64 1.9521,-1.5388 4.6161,-3.7145 5.92,-4.8348 1.3038,-1.1203 2.7306,-2.337 3.1706,-2.7037 3.0348,-2.5295 13.4874,-12.1055 15.9516,-14.614 3.6518,-3.7174 10.5581,-11.5406 13.1897,-14.9409 2.7923,-3.6079 6.2615,-8.719 7.2386,-10.6645 0.3093,-0.616 0.9416,-1.696 1.405,-2.4 0.4634,-0.704 1.0268,-1.856 1.252,-2.56 0.2252,-0.704 0.7454,-1.8608 1.1561,-2.5708 0.4107,-0.7099 0.9706,-2.3552 1.2443,-3.6561 0.6603,-3.1394 0.8303,-3.3112 3.1133,-3.146 1.571,0.1136 2.0236,0.2962 2.9426,1.1869 1.6654,1.6142 2.9038,4.9695 3.4938,9.466 0.8374,6.382 1.2585,12.6762 1.0833,16.192 -0.4771,9.5756 -0.8883,17.7846 -1.1927,23.808 -0.1867,3.696 -0.4735,7.944 -0.6372,9.44 -0.7048,6.4401 -1.2752,12.6761 -1.6099,17.6 -0.1974,2.904 -0.637,6.4558 -0.9769,7.8929 -0.3399,1.4371 -0.7625,4.7646 -0.9391,7.3945 -0.2275,3.3889 -0.549,5.5433 -1.1039,7.3971 -0.4305,1.4385 -0.9419,3.777 -1.1362,5.1966 -0.1944,1.4196 -0.7766,3.7289 -1.2939,5.1318 -1.0077,2.733 -1.183,4.2376 -0.5405,4.6397 0.7191,0.45 8.829,-0.1841 10.96,-0.857 0.528,-0.1668 3.3661,-0.6664 6.3068,-1.1104 2.9408,-0.444 6.4776,-1.1645 7.8595,-1.6011 1.382,-0.4365 3.6559,-0.9522 5.0532,-1.1458 1.3973,-0.1937 3.1885,-0.6244 3.9805,-0.9572 1.6863,-0.7085 3.9238,-1.2409 5.28,-1.2564 0.528,-0.01 1.7388,-0.3735 2.6907,-0.8166 0.9519,-0.4431 3.0353,-1.0308 4.6297,-1.3059 1.5945,-0.2752 3.4077,-0.7571 4.0293,-1.0709 0.6217,-0.3138 2.4775,-0.8846 4.124,-1.2683 1.6466,-0.3838 4.2598,-1.122 5.8072,-1.6404 1.5474,-0.5184 3.1523,-0.946 3.5663,-0.9502 0.414,0 1.6168,-0.3767 2.6728,-0.8278 1.056,-0.4511 3.1648,-1.0824 4.6861,-1.4028 1.5214,-0.3205 3.1086,-0.8071 3.5272,-1.0813 0.4186,-0.2743 1.8223,-0.7219 3.1194,-0.9948 1.2972,-0.2728 3.0165,-0.7872 3.8209,-1.143 0.8043,-0.3557 2.6918,-0.917 4.1944,-1.2472 1.5026,-0.3302 3.4128,-0.8943 4.2449,-1.2535 0.8321,-0.3593 2.5995,-0.8776 3.9274,-1.1519 1.328,-0.2743 3.3112,-0.8479 4.4071,-1.2747 1.0959,-0.4267 2.8346,-0.9419 3.8637,-1.1448 1.0291,-0.2029 2.3428,-0.6472 2.9194,-0.9874 0.5766,-0.3402 2.1762,-0.8343 3.5547,-1.098 1.3785,-0.2638 2.9861,-0.7627 3.5725,-1.1086 0.5863,-0.346 2.2362,-0.9278 3.6664,-1.293 1.4302,-0.3651 3.1169,-0.9246 3.7482,-1.2432 0.6312,-0.3186 2.0056,-0.8262 3.054,-1.128 1.0485,-0.3019 2.5685,-0.8844 3.3777,-1.2944 0.8092,-0.4101 2.0394,-0.851 2.7337,-0.9799 0.6943,-0.1288 2.1743,-0.7166 3.2889,-1.3061 1.1146,-0.5896 2.2823,-1.072 2.5949,-1.072 0.3126,0 1.3447,-0.4114 2.2935,-0.9142 0.9487,-0.5028 2.301,-1.1013 3.005,-1.33 0.704,-0.2287 1.784,-0.7425 2.4,-1.1419 0.616,-0.3994 1.6982,-0.8774 2.4049,-1.0622 0.7067,-0.1847 1.9468,-0.7557 2.7557,-1.2686 0.8089,-0.513 1.9072,-1.0286 2.4406,-1.1458 0.5334,-0.1171 1.6127,-0.6207 2.3985,-1.119 0.7858,-0.4984 1.7733,-1.0097 2.1945,-1.1364 0.4212,-0.1267 1.4138,-0.6316 2.2058,-1.1219 0.792,-0.4903 1.8,-0.9966 2.24,-1.1251 0.7174,-0.2094 1.6683,-0.7308 5.44,-2.9824 0.616,-0.3677 2.0004,-1.0881 3.0765,-1.6008 1.0761,-0.5127 2.0614,-1.1017 2.1895,-1.309 0.128,-0.2072 0.9756,-0.7083 1.8834,-1.1135 0.9078,-0.4053 1.9332,-1.0547 2.2786,-1.4433 0.3453,-0.3885 1.8573,-1.3672 3.36,-2.1748 1.5026,-0.8075 3.164,-1.7856 3.692,-2.1735 0.528,-0.3879 1.536,-1.0205 2.24,-1.4059 0.704,-0.3854 2.0241,-1.2342 2.9335,-1.8862 0.9094,-0.652 2.9254,-2.0357 4.48,-3.0749 1.5546,-1.0392 3.5828,-2.461 4.5071,-3.1594 2.1814,-1.6483 4.1904,-1.9694 5.3729,-0.8585 0.4575,0.4298 0.7865,1.0991 0.7865,1.6001 0,1.6959 -3.4268,13.6036 -4.9691,17.2672 -0.4075,0.968 -0.8909,2.5857 -1.0741,3.5948 -0.1832,1.0092 -0.6926,2.5946 -1.1319,3.5232 -0.4393,0.9286 -0.9663,2.479 -1.1712,3.4452 -0.2049,0.9662 -0.6318,2.2694 -0.9486,2.896 -0.3168,0.6266 -0.8141,2.0579 -1.1051,3.1808 -0.291,1.1229 -0.8254,2.6225 -1.1876,3.3326 -0.3622,0.71 -0.908,2.1628 -1.2127,3.2285 -0.3048,1.0657 -0.932,2.7363 -1.3938,3.7125 -0.4617,0.9761 -0.936,2.2679 -1.0538,2.8706 -0.1177,0.6027 -0.6952,2.0078 -1.2831,3.1224 -0.588,1.1146 -1.069,2.3075 -1.069,2.6509 0,0.3434 -0.4953,1.5915 -1.1007,2.7734 -0.6054,1.182 -2.3407,4.6691 -3.8562,7.7491 -2.9619,6.0196 -4.5442,8.9234 -5.3565,9.83 -0.2809,0.3135 -0.8959,1.362 -1.3667,2.33 -1.9066,3.9198 -4.1507,7.9596 -5.5994,10.08 -0.481,0.704 -0.9758,1.6048 -1.0996,2.0017 -0.1238,0.397 -0.5723,1.1344 -0.9966,1.6387 -0.4244,0.5043 -1.0646,1.5475 -1.4228,2.3182 -0.7224,1.5546 -1.4811,2.8531 -3.0626,5.2414 -0.5827,0.88 -1.2159,2.0147 -1.4071,2.5216 -0.1911,0.5068 -1.2596,2.3092 -2.3744,4.0052 -1.1147,1.6961 -2.134,3.4213 -2.2649,3.8338 -0.1309,0.4126 -0.6963,1.2742 -1.2563,1.9148 -1.0018,1.1459 -3.1249,4.513 -3.4794,5.5182 -0.1851,0.5249 -4.3621,6.9056 -5.8435,8.9264 -0.4516,0.616 -1.2001,1.696 -1.6633,2.4 -0.4633,0.704 -1.717,2.5419 -2.7861,4.0842 -1.0692,1.5423 -2.4077,3.4863 -2.9745,4.32 -0.5669,0.8337 -1.2527,1.8038 -1.5239,2.1558 -0.2713,0.352 -1.4962,1.936 -2.722,3.52 -1.2258,1.584 -2.556,3.3086 -2.9561,3.8324 -0.4001,0.5238 -1.5194,1.9443 -2.4874,3.1567 -0.968,1.2124 -2.0633,2.6216 -2.434,3.1316 -1.5534,2.1366 -9.844,11.3023 -13.7131,15.1603 -5.9174,5.9006 -13.7471,12.5666 -18.7329,15.9488 -3.1865,2.1616 -7.025,4.3517 -8.16,4.656 -0.7828,0.2098 -1.7315,0.8253 -2.4423,1.5845 -0.6393,0.6828 -1.5665,1.3428 -2.0605,1.4668 -0.494,0.124 -1.2752,0.494 -1.7361,0.8221 -0.4609,0.3282 -1.4777,0.849 -2.2595,1.1573 -0.7819,0.3084 -1.9256,0.8887 -2.5416,1.2896 -0.616,0.401 -1.7179,0.9393 -2.4487,1.1962 -0.7309,0.257 -1.8829,0.8236 -2.56,1.259 -0.6772,0.4355 -1.7831,0.9659 -2.4576,1.1788 -0.6745,0.2128 -1.8265,0.7301 -2.56,1.1496 -0.7335,0.4194 -1.5592,0.7643 -1.8347,0.7665 -0.2756,0 -1.6341,0.5798 -3.019,1.2838 -1.3849,0.704 -2.7253,1.28 -2.9787,1.28 -0.2534,0 -1.577,0.504 -2.9413,1.12 -1.3643,0.616 -2.6784,1.1201 -2.9203,1.1203 -0.2418,1e-4 -1.3737,0.4421 -2.5152,0.9821 -1.1415,0.54 -3.0035,1.1971 -4.1378,1.4601 -1.1343,0.2631 -2.6483,0.8153 -3.3645,1.2272 -0.7162,0.4119 -1.9502,0.8472 -2.7422,0.9675 -0.792,0.1203 -2.376,0.6297 -3.52,1.1322 -1.144,0.5024 -2.8701,1.0716 -3.8358,1.2649 -0.9657,0.1933 -2.0731,0.5594 -2.4609,0.8135 -0.3878,0.2541 -2.1897,0.8183 -4.0042,1.2539 -1.8145,0.4356 -4.0711,1.0914 -5.0146,1.4573 -0.9435,0.366 -2.7787,0.8688 -4.0782,1.1174 -1.2995,0.2487 -3.0352,0.7495 -3.8571,1.1131 -0.8219,0.3636 -2.5146,0.8189 -3.7617,1.012 -1.2471,0.193 -2.9655,0.7042 -3.8187,1.1359 -0.8706,0.4406 -2.7659,0.9681 -4.32,1.2024 -1.5228,0.2297 -3.3448,0.7191 -4.0488,1.0878 -0.704,0.3687 -2.36,0.8943 -3.68,1.168 -1.32,0.2738 -3.264,0.7796 -4.32,1.1242 -1.056,0.3445 -3.2011,0.9279 -4.7668,1.2964 -1.5657,0.3685 -3.5112,0.9319 -4.3233,1.252 -0.8121,0.3201 -2.6475,0.8029 -4.0787,1.0728 -1.4312,0.2699 -3.1946,0.793 -3.9186,1.1624 -0.724,0.3694 -2.436,0.867 -3.8045,1.1059 -1.3684,0.2389 -3.0574,0.7395 -3.7533,1.1125 -0.855,0.4583 -1.8433,0.6782 -3.0474,0.6782 -1.4479,0 -2.0789,0.1883 -3.3647,1.0042 -0.8705,0.5522 -2.8464,1.3424 -4.3909,1.756 -1.5445,0.4135 -3.2308,0.9704 -3.7473,1.2375 -0.5165,0.2671 -1.8843,0.7048 -3.0395,0.9728 -1.1552,0.2679 -2.9249,0.9003 -3.9327,1.4053 -1.0078,0.505 -2.6005,1.0782 -3.5395,1.2737 -0.939,0.1955 -2.307,0.6964 -3.04,1.1132 -0.733,0.4168 -2.0528,0.9306 -2.9328,1.1417 -0.88,0.2111 -2.032,0.6483 -2.56,0.9714 -0.528,0.3232 -1.824,0.8345 -2.88,1.1363 -1.056,0.3017 -2.496,0.8781 -3.2,1.2809 -0.704,0.4028 -2.0301,0.9511 -2.947,1.2186 -0.9168,0.2674 -2.2848,0.8387 -3.04,1.2694 -0.7551,0.4308 -1.7807,0.878 -2.2789,0.9938 -0.4982,0.1157 -1.4342,0.555 -2.08,0.9763 -0.6458,0.4212 -1.7103,0.8629 -2.3656,0.9814 -0.6554,0.1186 -1.8789,0.7042 -2.719,1.3015 -0.8401,0.5973 -1.723,1.086 -1.962,1.086 -0.239,0 -1.1411,0.3549 -2.0048,0.7887 -0.8636,0.4338 -2.1805,0.9497 -2.9264,1.1465 -0.746,0.1968 -1.8603,0.8438 -2.4763,1.4376 -0.616,0.5939 -1.7415,1.2989 -2.5011,1.5668 -0.7597,0.2678 -1.7677,0.7615 -2.24,1.0971 -0.4724,0.3355 -1.4118,0.8406 -2.0875,1.1223 -0.6757,0.2818 -1.6588,0.8742 -2.1846,1.3166 -0.5257,0.4424 -1.13,0.8044 -1.3428,0.8044 -0.4268,0 -8.5306,4.7033 -9.804,5.6901 -0.44,0.3409 -1.376,0.9143 -2.08,1.2741 -0.704,0.3598 -1.712,1.0289 -2.24,1.4869 -0.528,0.458 -1.248,0.9247 -1.6,1.0371 -0.352,0.1124 -1.432,0.7432 -2.4,1.4017 -0.968,0.6585 -2.768,1.8649 -4,2.6807 -1.232,0.8159 -2.672,1.803 -3.2,2.1936 -1.1693,0.865 -4.5067,3.2897 -8.16,5.9284 -1.496,1.0806 -3.224,2.3409 -3.84,2.8007 -0.616,0.4599 -2.0599,1.509 -3.2088,2.3314 -2.129,1.5241 -3.2068,2.3741 -6.9793,5.504 -1.1726,0.9729 -2.9475,2.3722 -3.9444,3.1096 -5.1718,3.8261 -15.63,13.6118 -20.7493,19.4153 -3.1913,3.6178 -10.1333,10.4171 -12.3182,12.065 -0.528,0.3983 -1.5688,1.2725 -2.3128,1.9427 -1.0749,0.9683 -1.6072,1.2187 -2.5905,1.2187 -0.7857,0 -1.428,-0.2105 -1.7593,-0.5765 z"
         style="fill:#cb4528;fill-opacity:1"
         id="path21" />
      <path
         d="m 523.79126,1699.5232 c -2.024,-0.1266 -4.832,-0.4727 -6.24,-0.7692 -1.408,-0.2965 -4.0249,-0.7367 -5.8153,-0.9781 -1.7904,-0.2415 -3.8064,-0.7199 -4.48,-1.0632 -0.6736,-0.3432 -2.3972,-0.845 -3.8302,-1.115 -1.433,-0.27 -3.1697,-0.7787 -3.8592,-1.1304 -0.6895,-0.3518 -2.1724,-0.8777 -3.2953,-1.1687 -1.1229,-0.2909 -2.5542,-0.7898 -3.1808,-1.1085 -0.6266,-0.3188 -2.2192,-0.8997 -3.5392,-1.2911 -1.32,-0.3913 -2.976,-1.0394 -3.68,-1.4402 -0.704,-0.4007 -1.856,-0.8267 -2.56,-0.9467 -0.704,-0.1199 -1.8057,-0.5776 -2.4482,-1.0172 -0.6425,-0.4396 -1.9385,-0.9813 -2.88,-1.2038 -0.9415,-0.2225 -2.2609,-0.7814 -2.932,-1.242 -0.6712,-0.4605 -1.8952,-0.9334 -2.72,-1.0508 -0.8249,-0.1174 -2.4447,-0.6222 -3.5996,-1.1217 -1.1549,-0.4996 -2.7956,-1.0642 -3.646,-1.2548 -0.8504,-0.1906 -2.3354,-0.7075 -3.2999,-1.1486 -0.9645,-0.4412 -2.6936,-1.0202 -3.8425,-1.2866 -1.1488,-0.2664 -2.607,-0.7488 -3.2403,-1.0719 -0.6333,-0.323 -2.435,-0.8279 -4.0036,-1.1218 -1.5687,-0.2939 -3.3961,-0.8119 -4.061,-1.1511 -0.6649,-0.3392 -2.5494,-0.825 -4.1879,-1.0794 -1.6384,-0.2545 -3.771,-0.748 -4.739,-1.0968 -0.968,-0.3487 -3.776,-0.9397 -6.24,-1.3132 -2.464,-0.3735 -4.984,-0.8088 -5.6,-0.9674 -2.3518,-0.6053 -7.3997,-1.2497 -12.48,-1.5931 -2.904,-0.1962 -6.072,-0.5033 -7.04,-0.6823 -1.061,-0.1961 -6.2716,-0.281 -13.12,-0.2135 -13.455,0.1325 -21.9227,0.8805 -27.5663,2.435 -1.8734,0.516 -4.1485,1.0403 -5.0557,1.1651 -0.9072,0.1247 -3.0464,0.7149 -4.7537,1.3114 -1.7074,0.5965 -3.3742,1.086 -3.704,1.0878 -0.3299,0 -1.716,0.5072 -3.0803,1.1232 -1.3643,0.616 -2.7027,1.12 -2.9742,1.12 -0.2715,0 -1.5453,0.504 -2.8307,1.12 -1.2854,0.616 -2.5252,1.12 -2.7552,1.12 -0.23,0 -1.242,0.4123 -2.249,0.9161 -1.007,0.5038 -2.4069,1.1025 -3.1109,1.3305 -0.704,0.228 -1.9802,0.8958 -2.8359,1.484 -0.8558,0.5882 -1.7198,1.0708 -1.92,1.0725 -0.2003,0 -0.9712,0.4698 -1.7132,1.04 -3.114,2.3935 -9.0765,6.5386 -10.7792,7.4937 -2.3187,1.3007 -5.8909,2.7241 -7.2364,2.8835 -2.7384,0.3243 -3.964,-1.1179 -2.5927,-3.0509 0.5676,-0.8 1.7034,-2.9371 6.6592,-12.5294 1.1366,-2.2 2.2679,-4.2231 2.5139,-4.4958 0.2461,-0.2728 0.6556,-1.086 0.9101,-1.8072 0.2545,-0.7213 0.9063,-1.9237 1.4484,-2.6722 0.5422,-0.7484 0.9867,-1.5192 0.9878,-1.7128 0.001,-0.1936 0.2411,-0.784 0.5335,-1.312 0.9002,-1.6258 3.0264,-5.6914 3.6818,-7.04 0.3421,-0.704 0.8264,-1.64 1.0763,-2.08 0.2499,-0.44 0.857,-1.5967 1.3492,-2.5705 0.4921,-0.9738 1.1876,-2.1978 1.5456,-2.72 0.3579,-0.5222 1.3433,-2.3895 2.1897,-4.1495 0.8463,-1.76 1.9381,-3.848 2.4261,-4.64 0.488,-0.792 0.9944,-1.8 1.1254,-2.24 0.1309,-0.44 0.6275,-1.376 1.1035,-2.08 0.476,-0.704 1.027,-1.7543 1.2244,-2.3341 0.1975,-0.5798 0.6411,-1.4502 0.9857,-1.9342 0.3447,-0.484 0.9895,-1.6657 1.4329,-2.6259 0.4434,-0.9601 1.0217,-2.1058 1.2851,-2.5458 0.2635,-0.44 0.8494,-1.592 1.302,-2.56 1.1436,-2.4457 4.7333,-9.1062 5.2098,-9.6665 0.2161,-0.2542 0.7574,-1.2432 1.2029,-2.1978 0.4454,-0.9546 1.4541,-2.8157 2.2415,-4.1357 0.7874,-1.32 1.726,-3.0055 2.0858,-3.7457 0.3598,-0.7402 0.9906,-1.7482 1.4017,-2.24 0.4112,-0.4918 1.0533,-1.4965 1.4268,-2.2325 0.3735,-0.7361 0.8273,-1.4299 1.0083,-1.5418 0.181,-0.1118 0.633,-0.8056 1.0043,-1.5417 0.3713,-0.736 2.5833,-4.2183 4.9156,-7.7383 2.3322,-3.52 4.545,-7.048 4.9172,-7.84 0.3723,-0.792 1.3199,-2.304 2.1058,-3.36 0.7859,-1.056 1.7918,-2.568 2.2353,-3.36 0.4435,-0.792 1.3763,-2.232 2.0729,-3.2 0.6965,-0.968 1.6629,-2.408 2.1476,-3.2 0.4847,-0.792 1.2502,-1.8935 1.7012,-2.4477 0.4511,-0.5543 1.2928,-1.7063 1.8706,-2.56 0.5778,-0.8538 1.8368,-2.7043 2.7978,-4.1123 0.961,-1.408 2.1442,-3.1758 2.6295,-3.9286 0.4852,-0.7527 1.7411,-2.5527 2.791,-4 1.0498,-1.4472 2.6358,-3.7114 3.5245,-5.0314 0.8886,-1.32 2.2617,-3.2489 3.0512,-4.2865 2.5626,-3.3677 3.9622,-5.2452 5.8015,-7.7823 0.9932,-1.3701 2.1139,-2.7697 2.4903,-3.1101 0.3764,-0.3404 0.9992,-1.1324 1.384,-1.76 0.3848,-0.6276 1.3521,-1.9831 2.1496,-3.0123 0.7976,-1.0292 1.6599,-2.1812 1.9163,-2.56 0.2565,-0.3788 0.9765,-1.2761 1.6,-1.994 0.6236,-0.718 1.7098,-2.0638 2.4138,-2.9907 2.0665,-2.721 5.8143,-7.3576 8.037,-9.9431 1.1353,-1.3205 2.7574,-3.2971 3.6047,-4.3925 0.8472,-1.0953 2.4182,-2.9673 3.4911,-4.16 1.8689,-2.0777 2.6844,-2.9965 9.1872,-10.3506 5.4861,-6.2044 10.9863,-12.0132 18.6132,-19.6579 9.5719,-9.5942 12.4252,-12.3063 19.0124,-18.0717 2.8899,-2.5294 5.8304,-5.149 6.5344,-5.8214 1.419,-1.3552 7.7163,-6.6668 10.5598,-8.9069 1.0053,-0.792 2.4434,-1.944 3.1958,-2.56 1.8666,-1.5282 3.3633,-2.7084 6.2196,-4.9039 1.3336,-1.0251 3.2007,-2.4651 4.1491,-3.2 0.9483,-0.7348 2.3883,-1.801 3.2,-2.3693 3.9149,-2.7412 4.8121,-3.3851 6.5957,-4.7344 1.056,-0.7988 2.3706,-1.6585 2.9214,-1.9105 0.5507,-0.252 1.4147,-0.8038 1.92,-1.2262 0.5052,-0.4225 1.2172,-0.8614 1.5822,-0.9755 0.365,-0.1141 0.941,-0.4628 1.28,-0.7748 0.9226,-0.8492 5.0965,-3.6179 7.8164,-5.1849 1.32,-0.7605 2.7362,-1.6117 3.147,-1.8916 2.9463,-2.007 4.552,-3.0078 5.7188,-3.5643 0.7401,-0.3531 1.7566,-0.9876 2.2588,-1.4102 0.5022,-0.4226 1.6966,-1.1426 2.6543,-1.6 0.9576,-0.4574 2.6771,-1.3999 3.8211,-2.0946 1.144,-0.6946 2.728,-1.5748 3.52,-1.9561 0.792,-0.3812 2.016,-1.0814 2.72,-1.5559 2.058,-1.3872 4.3943,-2.7185 5.6,-3.1911 0.616,-0.2414 1.5913,-0.7858 2.1674,-1.2098 0.5761,-0.4239 1.7281,-1.0009 2.56,-1.2822 0.8319,-0.2814 2.0166,-0.8324 2.6326,-1.2246 0.616,-0.3922 1.696,-0.8876 2.4,-1.1008 0.704,-0.2132 2.131,-0.8042 3.1711,-1.3134 1.0401,-0.5092 2.174,-0.9259 2.5197,-0.9259 0.3458,0 1.7449,-0.504 3.1092,-1.12 1.3643,-0.616 2.6506,-1.12 2.8584,-1.12 0.2078,0 1.5577,-0.4862 2.9997,-1.0805 1.4421,-0.5943 3.3827,-1.2418 4.3125,-1.4389 0.9298,-0.1971 2.2587,-0.6482 2.9531,-1.0025 0.6945,-0.3542 2.228,-0.868 3.4079,-1.1416 1.1799,-0.2737 2.996,-0.8556 4.0357,-1.2932 1.0397,-0.4376 2.6669,-0.9392 3.6161,-1.1147 0.9491,-0.1754 2.4842,-0.6604 3.4112,-1.0777 0.927,-0.4172 2.7413,-0.9175 4.0319,-1.1118 1.2906,-0.1942 2.8746,-0.6176 3.52,-0.941 1.0551,-0.5287 3.6779,-1.2343 6.7735,-1.8224 0.616,-0.117 1.4995,-0.4066 1.9634,-0.6435 0.4639,-0.2369 2.4079,-0.7415 4.32,-1.1214 1.9121,-0.3798 4.2709,-1.0203 5.2418,-1.4232 0.9708,-0.403 2.8802,-0.8878 4.2429,-1.0773 1.3628,-0.1896 3.3361,-0.7059 4.385,-1.1473 1.0489,-0.4415 2.8261,-0.9329 3.9492,-1.0919 1.1231,-0.1591 2.6551,-0.602 3.4044,-0.9842 0.7493,-0.3823 2.5348,-0.915 3.9678,-1.1837 1.433,-0.2688 3.4361,-0.8368 4.4513,-1.2624 1.0152,-0.4256 2.9106,-0.9775 4.212,-1.2265 1.3015,-0.249 2.9708,-0.7611 3.7098,-1.1381 0.7389,-0.377 2.3688,-0.8992 3.6221,-1.1605 1.2532,-0.2613 2.7132,-0.7436 3.2445,-1.0719 0.5312,-0.3282 1.9738,-0.8412 3.2058,-1.1401 1.232,-0.2988 2.7283,-0.8206 3.3251,-1.1593 0.5968,-0.3388 1.8208,-0.8145 2.72,-1.0572 0.8992,-0.2427 2.8589,-0.953 4.3549,-1.5784 1.496,-0.6254 2.8883,-1.1397 3.0939,-1.1429 0.2057,0 1.4256,-0.5099 2.711,-1.1259 1.2854,-0.616 2.5455,-1.12 2.8002,-1.12 0.2547,0 1.1948,-0.4127 2.089,-0.9172 0.8943,-0.5045 2.1299,-1.0258 2.7459,-1.1585 0.616,-0.1327 2.0417,-0.728 3.1682,-1.3228 1.1266,-0.5948 2.2834,-1.0815 2.5708,-1.0815 0.2874,0 1.3049,-0.504 2.261,-1.12 0.9561,-0.616 2.0174,-1.12 2.3585,-1.12 0.341,0 1.4978,-0.4865 2.5708,-1.0811 1.0729,-0.5947 2.3107,-1.1861 2.7507,-1.3143 0.44,-0.1282 1.448,-0.6332 2.24,-1.1222 0.792,-0.489 2.016,-1.0675 2.72,-1.2854 0.704,-0.2179 1.712,-0.7165 2.24,-1.108 0.528,-0.3915 1.491,-0.8859 2.14,-1.0986 0.649,-0.2127 1.5396,-0.6697 1.9792,-1.0154 0.4395,-0.3458 1.4205,-0.8473 2.18,-1.1145 0.7594,-0.2672 1.8869,-0.8917 2.5054,-1.3877 0.6186,-0.496 1.4826,-1.0092 1.92,-1.1405 0.4375,-0.1313 1.4434,-0.6173 2.2354,-1.08 0.792,-0.4627 1.9622,-1.0807 2.6005,-1.3734 0.6383,-0.2927 1.2636,-0.6989 1.3894,-0.9026 0.1259,-0.2037 0.9717,-0.7232 1.8795,-1.1546 0.9078,-0.4313 2.1087,-1.1076 2.6686,-1.5029 0.5599,-0.3953 2.2548,-1.4212 3.7664,-2.2796 1.5116,-0.8585 2.828,-1.6897 2.9253,-1.8472 0.097,-0.1574 0.9944,-0.7204 1.9936,-1.2511 0.9992,-0.5306 2.3207,-1.3152 2.9367,-1.7434 0.616,-0.4283 1.768,-1.2191 2.56,-1.7575 0.792,-0.5383 1.944,-1.3272 2.56,-1.7532 0.616,-0.426 2.704,-1.8583 4.64,-3.1828 1.936,-1.3246 4.0562,-2.8078 4.7116,-3.2961 0.6554,-0.4883 2.5994,-1.9365 4.32,-3.2181 7.6426,-5.6929 9.2801,-7.0203 18.437,-14.9456 5.3615,-4.6404 20.7396,-19.751 24.8831,-24.4501 1.3026,-1.4773 3.5021,-3.9253 4.8878,-5.44 1.3857,-1.5147 2.9631,-3.4021 3.5054,-4.1941 0.941,-1.3741 2.9682,-3.9181 5.6099,-7.04 0.6702,-0.792 1.492,-1.872 1.8262,-2.4 0.3342,-0.528 1.2725,-1.824 2.0851,-2.88 1.9547,-2.5404 3.7791,-5.2988 6.2143,-9.3962 0.3518,-0.5919 1.2156,-1.9839 1.9196,-3.0934 2.5008,-3.9411 4.5889,-7.5454 5.4633,-9.4304 0.2858,-0.616 0.8414,-1.552 1.2347,-2.08 0.3933,-0.528 1.1063,-1.752 1.5845,-2.72 1.0054,-2.0356 2.1947,-4.1111 3.5575,-6.2087 0.528,-0.8127 1.6447,-2.5446 2.4815,-3.8487 1.6999,-2.6492 3.589,-4.3426 4.8446,-4.3426 h 0.8339 v 14.24 c 0,11.9584 -0.071,14.24 -0.4458,14.24 -0.6623,0 -0.8448,0.7455 -1.1747,4.7996 -0.3877,4.7631 -0.5106,5.4774 -1.4041,8.1604 -0.4103,1.232 -0.8432,3.2922 -0.9619,4.5782 -0.1187,1.2859 -0.5726,3.2861 -1.0088,4.4448 -0.4361,1.1586 -0.9976,3.5625 -1.2477,5.3418 -0.2502,1.7794 -0.7359,4.0509 -1.0793,5.0479 -0.3434,0.9969 -0.8619,3.0129 -1.1521,4.48 -0.2902,1.467 -0.9403,4.1793 -1.4446,6.0273 -0.5043,1.848 -1.0875,4.224 -1.296,5.28 -0.2085,1.056 -0.6504,2.4544 -0.9821,3.1074 -0.3317,0.6531 -0.7642,2.3091 -0.9612,3.68 -0.197,1.371 -0.7567,3.4286 -1.2439,4.5726 -0.4872,1.144 -1.0539,3.0733 -1.2594,4.2873 -0.2055,1.214 -0.6431,2.7355 -0.9725,3.3812 -0.3294,0.6457 -0.816,2.3184 -1.0814,3.7171 -0.2653,1.3987 -0.7904,3.2612 -1.1669,4.1388 -0.3765,0.8776 -0.9445,2.6831 -1.2622,4.0122 -0.3177,1.3291 -0.8836,3.0163 -1.2576,3.7494 -0.374,0.7331 -0.8319,2.0937 -1.0175,3.0235 -0.1856,0.9298 -0.7485,2.6265 -1.2509,3.7705 -0.5025,1.144 -1.0155,2.728 -1.1402,3.52 -0.1246,0.792 -0.5627,2.1064 -0.9734,2.9208 -0.4108,0.8145 -0.9188,2.1825 -1.1289,3.04 -0.2102,0.8576 -0.7,2.2072 -1.0885,2.9992 -0.3885,0.792 -1.0104,2.448 -1.3821,3.68 -0.3716,1.232 -1.0402,2.7722 -1.4856,3.4225 -0.4455,0.6504 -1.0106,2.0184 -1.2558,3.04 -0.2453,1.0217 -0.7463,2.5055 -1.1134,3.2975 -0.3671,0.792 -0.6705,1.656 -0.6743,1.92 0,0.264 -0.4952,1.488 -1.0921,2.72 -0.5969,1.232 -1.4062,3.032 -1.7983,4 -1.9169,4.7319 -2.3478,5.7281 -3.1832,7.36 -0.4955,0.968 -1.0082,2.12 -1.1393,2.56 -0.131,0.44 -0.5246,1.2065 -0.8746,1.7032 -0.3499,0.4968 -0.8267,1.5359 -1.0594,2.3091 -0.2327,0.7733 -0.8558,2.2388 -1.3847,3.2568 -1.3502,2.5988 -3.1321,6.5013 -3.4023,7.4509 -0.1252,0.44 -0.5678,1.2544 -0.9836,1.8097 -0.4158,0.5553 -1.0564,1.8126 -1.4235,2.7939 -0.3672,0.9814 -0.8202,1.8786 -1.0067,1.9938 -0.1865,0.1153 -0.7561,1.09 -1.2658,2.1661 -0.5097,1.0761 -1.4889,2.9645 -2.176,4.1965 -0.6871,1.232 -1.7454,3.176 -2.3518,4.32 -3.3349,6.2914 -5.3885,9.9409 -6.4824,11.52 -2.1746,3.1394 -2.8689,4.183 -4.1511,6.24 -0.768,1.232 -1.7284,2.6619 -2.1344,3.1775 -0.4059,0.5156 -1.026,1.4013 -1.378,1.9683 -0.352,0.5669 -1.2266,1.8731 -1.9435,2.9025 -0.7169,1.0295 -1.684,2.4477 -2.149,3.1517 -1.3571,2.0546 -4.4342,6.1566 -5.9075,7.8751 -0.748,0.8724 -1.36,1.6984 -1.36,1.8355 0,0.137 -1.08,1.532 -2.4,3.1 -1.32,1.5681 -2.4,2.9581 -2.4,3.0891 0,0.131 -1.044,1.4487 -2.32,2.9284 -1.276,1.4796 -2.896,3.4535 -3.6,4.3865 -0.704,0.9329 -1.5718,1.9953 -1.9284,2.3609 -0.3566,0.3655 -1.2875,1.4565 -2.0687,2.4245 -0.7811,0.968 -2.5164,2.984 -3.8561,4.48 -1.3397,1.496 -3.0455,3.512 -3.7907,4.48 -2.0086,2.6091 -8.7069,9.2695 -12.3299,12.2602 -1.7456,1.4409 -4.3584,3.6278 -5.8063,4.8598 -4.4562,3.7918 -11.4659,9.12 -11.9981,9.12 -0.1542,0 -0.9704,0.612 -1.8136,1.36 -1.6842,1.494 -7.3674,5.4621 -10.7721,7.5213 -0.5081,0.3073 -1.5161,0.996 -2.24,1.5305 -0.7238,0.5345 -1.8201,1.1726 -2.4361,1.4181 -0.616,0.2455 -1.5731,0.8162 -2.1268,1.2682 -0.5538,0.4521 -1.912,1.3259 -3.0184,1.9419 -1.1063,0.616 -2.8133,1.6036 -3.7932,2.1945 -0.9799,0.591 -2.3068,1.2634 -2.9488,1.4942 -0.642,0.2309 -1.7796,0.8634 -2.528,1.4056 -0.7485,0.5421 -1.599,0.9857 -1.8902,0.9857 -0.2911,0 -1.2255,0.4415 -2.0763,0.9811 -0.8509,0.5396 -2.306,1.2651 -3.2335,1.6121 -0.9276,0.3471 -1.8604,0.8405 -2.0729,1.0966 -0.2126,0.2561 -0.9817,0.6228 -1.7092,0.815 -0.7275,0.1921 -1.9707,0.757 -2.7627,1.2552 -0.792,0.4983 -2.088,1.0739 -2.88,1.2792 -0.792,0.2052 -2.016,0.7001 -2.72,1.0998 -0.704,0.3996 -2,0.9025 -2.88,1.1175 -0.88,0.215 -2.32,0.7956 -3.2,1.2902 -0.88,0.4946 -2.32,0.9993 -3.2,1.1214 -0.88,0.1221 -2.2165,0.5795 -2.9701,1.0164 -0.7535,0.4369 -2.2245,0.932 -3.2687,1.1001 -1.0443,0.1682 -2.9478,0.7185 -4.2299,1.223 -1.2822,0.5045 -3.0845,1.0108 -4.0051,1.125 -0.9205,0.1143 -3.0363,0.6272 -4.7016,1.1399 -1.6653,0.5126 -4.1797,1.0897 -5.5875,1.2825 -1.4078,0.1927 -3.6121,0.7115 -4.8984,1.1528 -1.2863,0.4413 -3.5627,0.954 -5.0587,1.1393 -1.496,0.1854 -3.5656,0.6918 -4.5992,1.1255 -1.0953,0.4596 -3.0832,0.923 -4.7661,1.1108 -1.5879,0.1773 -3.6222,0.615 -4.5209,0.9726 -0.8986,0.3577 -3.0738,0.9147 -4.8338,1.2378 -1.76,0.3232 -3.848,0.8198 -4.64,1.1036 -0.792,0.2838 -3.0513,0.7926 -5.0208,1.1306 -1.9694,0.338 -4.9934,1.032 -6.72,1.5422 -1.7265,0.5101 -4.1472,1.0324 -5.3792,1.1607 -1.232,0.1282 -3.0755,0.5837 -4.0966,1.0122 -1.0212,0.4285 -3.0372,0.9257 -4.48,1.1049 -1.4898,0.185 -3.3839,0.6734 -4.3834,1.1301 -1.002,0.458 -2.82,0.9261 -4.221,1.087 -1.3698,0.1573 -3.0597,0.588 -3.8111,0.9713 -0.7424,0.3788 -2.5197,0.8781 -3.9495,1.1095 -1.4298,0.2315 -3.4376,0.7914 -4.4619,1.2444 -1.0242,0.453 -3.0354,1.0592 -4.4693,1.3473 -1.434,0.288 -3.2712,0.8577 -4.0828,1.266 -0.8116,0.4082 -2.4606,0.9138 -3.6645,1.1234 -1.2039,0.2097 -3.0598,0.7932 -4.1244,1.2969 -1.0645,0.5036 -2.2955,0.9192 -2.7355,0.9235 -0.44,0 -1.664,0.3669 -2.72,0.8058 -1.056,0.4389 -3.0595,1.0926 -4.4523,1.4526 -1.3927,0.36 -3.0816,0.9348 -3.7531,1.2774 -0.6715,0.3426 -2.1936,0.8485 -3.3824,1.1242 -1.1888,0.2757 -3.0999,0.8993 -4.2468,1.3858 -1.147,0.4864 -2.681,0.9786 -3.409,1.0936 -0.728,0.1151 -2.1467,0.6421 -3.1525,1.1712 -1.0059,0.5291 -2.2103,0.9622 -2.6764,0.9623 -0.4661,10e-5 -1.7658,0.4347 -2.8881,0.9656 -1.1224,0.531 -2.7064,1.1258 -3.52,1.3219 -0.8137,0.1962 -2.2169,0.7696 -3.1184,1.2744 -0.9014,0.5048 -1.9308,0.9178 -2.2875,0.9178 -0.3567,0 -1.4374,0.415 -2.4016,0.9222 -0.9642,0.5072 -2.2872,1.0985 -2.9399,1.3139 -0.6528,0.2154 -1.6425,0.7878 -2.1994,1.272 -0.5569,0.4842 -1.5522,1.056 -2.2116,1.2707 -1.2575,0.4092 -2.161,1.3793 -2.161,2.3201 0,0.7152 1.3152,1.0359 6.08,1.4823 2.2772,0.2134 4.5339,0.6427 5.92,1.1264 1.4263,0.4976 3.3939,0.8649 5.4164,1.0111 1.747,0.1262 3.763,0.4382 4.48,0.6932 1.9042,0.6773 5.1236,1.3103 7.8636,1.5461 1.32,0.1136 3.336,0.4733 4.48,0.7993 2.1838,0.6224 6.3052,1.4089 9.28,1.771 0.968,0.1178 2.768,0.4229 4,0.678 4.4814,0.9278 11.1725,1.3534 22.08,1.4044 10.8948,0.051 11.7917,-2e-4 24.8,-1.4141 2.376,-0.2583 6.192,-0.6384 8.48,-0.8447 2.288,-0.2064 6.104,-0.7782 8.48,-1.2708 2.376,-0.4925 5.544,-0.9997 7.04,-1.1269 1.496,-0.1273 4.0364,-0.6358 5.6453,-1.13 1.6089,-0.4942 3.9849,-0.9989 5.28,-1.1216 1.2951,-0.1227 3.1833,-0.5551 4.196,-0.9609 1.0127,-0.4058 3.2728,-0.9655 5.0225,-1.2436 1.7496,-0.2782 3.839,-0.7878 4.6431,-1.1324 0.804,-0.3447 2.6863,-0.8561 4.1828,-1.1365 1.4966,-0.2805 3.4021,-0.8111 4.2344,-1.1793 0.8323,-0.3682 2.5693,-0.9333 3.8599,-1.2558 1.2905,-0.3225 2.7368,-0.8643 3.2138,-1.204 0.477,-0.3397 1.792,-0.8572 2.9222,-1.1501 1.1302,-0.2928 2.4651,-0.8245 2.9665,-1.1815 0.5014,-0.3571 1.7267,-0.862 2.723,-1.1222 0.9963,-0.2601 2.1757,-0.7276 2.621,-1.0388 0.4452,-0.3112 1.7704,-0.8728 2.9449,-1.2479 1.1745,-0.3752 2.6167,-0.9661 3.2048,-1.3131 0.5882,-0.347 1.8593,-0.7995 2.8246,-1.0055 0.9654,-0.206 2.5044,-0.7733 3.4201,-1.2606 0.9157,-0.4874 2.4277,-0.9899 3.36,-1.1166 0.9323,-0.1268 2.4151,-0.5958 3.2951,-1.0421 2.1278,-1.0793 5.8281,-1.3752 7.0648,-0.5648 0.6581,0.4312 0.8037,0.734 0.674,1.4016 -0.3533,1.8172 -1.7334,6.0327 -2.3741,7.2515 -0.3701,0.704 -1.3596,2.72 -2.1988,4.48 -0.8392,1.76 -1.8229,3.626 -2.1859,4.1467 -0.363,0.5206 -0.9568,1.5286 -1.3195,2.24 -0.3627,0.7113 -1.4224,2.5173 -2.3549,4.0133 -0.9325,1.496 -2.0447,3.368 -2.4715,4.16 -0.4268,0.792 -1.2026,2.016 -1.7241,2.72 -0.8311,1.1221 -2.6708,3.7486 -4.3707,6.24 -0.3002,0.44 -1.3454,1.8525 -2.3226,3.1389 -0.9772,1.2864 -2.2807,3.1029 -2.8967,4.0368 -1.5596,2.3643 -3.7318,5.2013 -5.2864,6.9043 -0.723,0.792 -2.0191,2.376 -2.8803,3.52 -0.8611,1.144 -2.0226,2.584 -2.581,3.2 -0.5585,0.616 -1.5528,1.84 -2.2097,2.72 -0.6569,0.88 -2.0062,2.4685 -2.9985,3.5299 -0.9922,1.0614 -2.8515,3.1809 -4.1317,4.71 -3.1067,3.7107 -7.1361,7.9059 -15.9409,16.5969 -7.9387,7.836 -8.2648,8.1373 -14.2115,13.1284 -10.5471,8.8524 -15.3306,12.6386 -16.5494,13.0991 -0.4898,0.185 -1.2506,0.6699 -1.6906,1.0775 -0.44,0.4076 -1.376,1.1234 -2.08,1.5907 -0.704,0.4673 -2.0224,1.3846 -2.9298,2.0386 -3.5335,2.5466 -6.0837,4.1839 -7.3058,4.6906 -0.7016,0.2909 -1.5656,0.7941 -1.92,1.1183 -0.3544,0.3242 -1.3644,0.9661 -2.2444,1.4264 -0.88,0.4603 -2.536,1.4111 -3.68,2.1128 -1.144,0.7017 -2.728,1.5713 -3.52,1.9323 -0.792,0.3611 -2.304,1.071 -3.36,1.5775 -1.056,0.5066 -2.28,1.0208 -2.72,1.1426 -0.44,0.1218 -1.2839,0.5146 -1.8753,0.8728 -0.5914,0.3583 -1.7434,0.7756 -2.56,0.9274 -0.8166,0.1517 -2.1882,0.7123 -3.0479,1.2457 -0.9512,0.5901 -2.4751,1.1443 -3.8921,1.4154 -1.2808,0.2451 -2.9531,0.7641 -3.7161,1.1533 -0.9025,0.4605 -2.6165,0.8591 -4.9052,1.1408 -1.9349,0.2381 -4.1672,0.6451 -4.9607,0.9043 -0.7935,0.2593 -3.5307,0.6179 -6.0827,0.7969 -4.9503,0.3473 -4.9463,0.3473 -10.56,0 z"
         style="fill:#0e8140;fill-opacity:1"
         id="path22" />
    </g>
    <path
       d="m 2310.2945,1838.2156 c 5.5,0 9.4,3.2 9.4,9.1 0,5.8 -3.4,9.6 -12.1,16.8 l -23.3,19.1 v 12.2 h 51.8 v -13.3 h -30.5 l 11.4,-8.8 c 12.4,-9.6 18.4,-15.5 18.4,-27.2 0,-13.1 -9.2,-21.7 -24.1,-21.7 -12.5,0 -19.2,5.1 -26.1,14.5 l 10.8,8.7 c 5.2,-6.4 8.9,-9.4 14.3,-9.4 z m 99,22.1 c 0,-20.4 -12.3,-36.1 -31,-36.1 -18.7,0 -31.2,15.9 -31.2,36.3 0,20.4 12.3,36.1 31,36.1 18.7,0 31.2,-15.9 31.2,-36.3 z m -15.8,0.2 c 0,12.8 -5.9,22.2 -15.2,22.2 -9.3,0 -15.4,-9.5 -15.4,-22.4 0,-12.9 5.9,-22.2 15.2,-22.2 9.3,0 15.4,9.6 15.4,22.4 z m 51.0999,-22.3 c 5.5,0 9.4,3.2 9.4,9.1 0,5.8 -3.4,9.6 -12.1,16.8 l -23.3,19.1 v 12.2 h 51.8 v -13.3 h -30.5 l 11.4,-8.8 c 12.4,-9.6 18.4,-15.5 18.4,-27.2 0,-13.1 -9.2,-21.7 -24.1,-21.7 -12.5,0 -19.2,5.1 -26.1,14.5 l 10.8,8.7 c 5.2,-6.4 8.9,-9.4 14.3,-9.4 z m 71.4,-13.3 -38.4,44.5 2.5,10.9 h 34.2 v 15.1 h 14.7 v -15.1 h 9.4 v -12.5 h -9.4 v -42.9 z m -1.7,42.9 h -18.6 l 18.6,-21.8 z"
       id="text22"
       style="font-weight:bold;font-size:100px;line-height:0.95;font-family:Gotham;-inkscape-font-specification:'Gotham, Bold';letter-spacing:0px;word-spacing:0px;stroke:#000000;stroke-width:41.9032;stroke-opacity:0"
       aria-label="2024" />
  </g>
</svg>
